<?xml version="1.0" standalone="no"?><!DOCTYPE svg PUBLIC "-//W3C//DTD SVG 1.1//EN" "http://www.w3.org/Graphics/SVG/1.1/DTD/svg11.dtd"><svg t="1721918215850" class="icon" viewBox="0 0 1024 1024" version="1.1" xmlns="http://www.w3.org/2000/svg" p-id="10583" xmlns:xlink="http://www.w3.org/1999/xlink" width="200" height="200"><path d="M884.9 772.6h-37.3v74.5c0 41.1-33.4 74.5-74.6 74.5H139c-41.2 0-74.6-33.3-74.6-74.5V325.8c0-41.1 33.4-74.5 74.6-74.5h37.3v-74.5c0-41.1 33.4-74.5 74.6-74.5h634c41.2 0 74.6 33.3 74.6 74.5v521.3c0 41.2-33.4 74.5-74.6 74.5z m-745.8-484c-20.6 0-37.3 16.7-37.3 37.2v521.3c0 20.6 16.7 37.2 37.3 37.2h634c20.6 0 37.3-16.7 37.3-37.2V325.8c0-20.6-16.7-37.2-37.3-37.2h-634z m783.1-111.7c0-20.6-16.7-37.2-37.3-37.2H251c-20.6 0-37.3 16.7-37.3 37.2v74.5H773c41.2 0 74.6 33.3 74.6 74.5v409.6h37.3c20.6 0 37.3-16.7 37.3-37.2V176.9zM623.9 586.5s4.3-37.2-37.3-37.2c-17 0-37.3 8.2-37.3 37.2v148.9h-74.6V512h149.2c-2.2 0 74.6-4.6 74.6 74.5v148.9h-74.6V586.5zM213.7 400.3h223.8v37.2H288.2v111.7h111.9v37.2H288.2v111.7h149.2v37.2H213.7v-335z" p-id="10584" fill="#ffebc8"></path></svg>