<?xml version="1.0" standalone="no"?><!DOCTYPE svg PUBLIC "-//W3C//DTD SVG 1.1//EN" "http://www.w3.org/Graphics/SVG/1.1/DTD/svg11.dtd"><svg t="1721918266139" class="icon" viewBox="0 0 1024 1024" version="1.1" xmlns="http://www.w3.org/2000/svg" p-id="13494" xmlns:xlink="http://www.w3.org/1999/xlink" width="200" height="200"><path d="M174.208 138.666667a35.541333 35.541333 0 0 0-35.541333 35.541333v675.584c0 19.626667 15.914667 35.541333 35.541333 35.541333h675.584c19.626667 0 35.541333-15.914667 35.541333-35.541333V174.208a35.541333 35.541333 0 0 0-35.541333-35.541333H174.208z m-99.541333 35.541333A99.541333 99.541333 0 0 1 174.208 74.666667h675.584a99.541333 99.541333 0 0 1 99.541333 99.541333v675.584a99.541333 99.541333 0 0 1-99.541333 99.541333H174.208a99.541333 99.541333 0 0 1-99.541333-99.541333V174.208z" p-id="13495" fill="#ffebc8"></path><path d="M275.2 317.226667A34.176 34.176 0 0 1 298.666667 308.053333h180.053333c8.362667 0 16.042667 3.072 21.930667 9.258667a29.653333 29.653333 0 0 1 9.258666 21.888 30.976 30.976 0 0 1-8.96 21.973333 29.653333 29.653333 0 0 1-22.186666 9.6H331.946667v87.04h122.453333c8.32 0 16 3.072 21.888 9.258667a29.696 29.696 0 0 1 9.258667 21.888 31.018667 31.018667 0 0 1-8.96 21.973333 29.653333 29.653333 0 0 1-22.186667 9.6H331.946667v112.213334a32.725333 32.725333 0 0 1-9.429334 23.338666 32.042667 32.042667 0 0 1-23.893333 10.368 33.408 33.408 0 0 1-23.978667-10.112 32.725333 32.725333 0 0 1-9.685333-23.594666V341.333333c0-8.96 3.242667-17.152 9.685333-23.594666l0.256-0.256 0.298667-0.256z m253.354667 0a34.176 34.176 0 0 1 23.466666-9.173334h105.386667a110.933333 110.933333 0 0 1 52.650667 12.544c16.554667 8.362667 29.610667 20.736 38.912 36.864 9.728 16.384 14.250667 35.285333 14.250666 55.978667 0 30.421333-8.277333 56.405333-27.050666 75.52-11.946667 12.202667-26.325333 20.736-42.666667 25.856l64.810667 100.053333c3.541333 5.376 5.333333 11.52 5.333333 17.877334 0 11.861333-5.546667 21.802667-15.274667 28.288a32.853333 32.853333 0 0 1-33.749333 1.493333 29.610667 29.610667 0 0 1-13.013333-12.117333L621.44 520.533333h-36.138667v112.213334a32.682667 32.682667 0 0 1-9.386666 23.338666 32.042667 32.042667 0 0 1-23.893334 10.368 33.408 33.408 0 0 1-23.978666-10.112 32.725333 32.725333 0 0 1-9.728-23.594666V341.333333c0-8.96 3.285333-17.152 9.728-23.594666l0.256-0.256 0.256-0.256z m56.746666 53.546666v87.04h72.106667c13.781333 0 22.613333-4.138667 28.714667-10.965333 6.528-7.296 10.538667-17.578667 10.538666-32.554667 0-15.36-4.053333-25.472-10.410666-32.384l-0.128-0.170666c-6.144-6.826667-14.933333-10.965333-28.714667-10.965334h-72.106667z" p-id="13496" fill="#ffebc8"></path></svg>